<svg width="904" height="821" viewBox="0 0 904 821" fill="none" xmlns="http://www.w3.org/2000/svg">
<g clip-path="url(#clip0_174_76)">
<path d="M748.665 579.826C739.979 614.129 715.671 642.789 679.068 665.233C642.463 687.679 593.589 703.887 535.849 713.283C420.369 732.073 269.52 723.595 110.684 683.373C-48.1518 643.15 -184.855 578.81 -277.473 507.322C-323.782 471.578 -359.051 434.062 -380.561 396.899C-402.07 359.74 -409.808 322.964 -401.121 288.661C-392.435 254.359 -368.127 225.698 -331.524 203.254C-294.919 180.809 -246.045 164.6 -188.305 155.205C-72.8251 136.414 78.0239 144.892 236.86 185.115C395.696 225.337 532.399 289.677 625.017 361.165C671.327 396.909 706.595 434.426 728.106 471.588C749.615 508.748 757.352 545.523 748.665 579.826Z" stroke="url(#paint0_linear_174_76)"/>
<path d="M1009.27 645.821C996.632 695.733 961.266 737.418 908.051 770.049C854.833 802.681 783.792 826.238 699.881 839.892C532.06 867.199 312.855 854.877 82.0541 796.431C-148.746 737.984 -347.396 644.491 -481.994 540.602C-549.294 488.656 -600.56 434.127 -631.833 380.099C-663.104 326.073 -674.368 272.58 -661.728 222.667C-649.088 172.755 -613.722 131.07 -560.507 98.4391C-507.289 65.8069 -436.248 42.2496 -352.337 28.5959C-184.516 1.28869 34.6892 13.6107 265.49 72.0571C496.29 130.504 694.94 223.997 829.538 327.886C896.837 379.832 948.104 434.361 979.376 488.389C1010.65 542.414 1021.91 595.908 1009.27 645.821Z" stroke="url(#paint1_linear_174_76)"/>
<path d="M1326.38 726.123C1308.93 795.03 1260.11 852.564 1186.68 897.589C1113.25 942.617 1015.23 975.116 899.477 993.951C667.967 1031.62 365.585 1014.62 47.2167 934.001C-271.151 853.379 -545.179 724.413 -730.858 581.096C-823.698 509.437 -894.431 434.205 -937.582 359.655C-980.732 285.107 -996.287 211.272 -978.837 142.365C-961.388 73.4573 -912.566 15.9239 -839.136 -29.1017C-765.704 -74.129 -667.69 -106.628 -551.933 -125.464C-320.423 -163.134 -18.0407 -146.135 300.327 -65.5132C618.695 15.1082 892.723 144.075 1078.4 287.392C1171.24 359.051 1241.97 434.283 1285.13 508.833C1328.28 583.38 1343.83 657.216 1326.38 726.123Z" stroke="url(#paint2_linear_174_76)"/>
</g>
<defs>
<linearGradient id="paint0_linear_174_76" x1="-361.304" y1="268.796" x2="634.755" y2="682.025" gradientUnits="userSpaceOnUse">
<stop stop-color="#484848"/>
<stop offset="0.491388" stop-color="#484848" stop-opacity="0.36"/>
<stop offset="1" stop-color="#484848"/>
</linearGradient>
<linearGradient id="paint1_linear_174_76" x1="-603.657" y1="193.859" x2="843.549" y2="794.253" gradientUnits="userSpaceOnUse">
<stop stop-color="#484848"/>
<stop offset="0.491388" stop-color="#484848" stop-opacity="0.36"/>
<stop offset="1" stop-color="#484848"/>
</linearGradient>
<linearGradient id="paint2_linear_174_76" x1="-898.555" y1="102.676" x2="1097.61" y2="930.813" gradientUnits="userSpaceOnUse">
<stop stop-color="#484848"/>
<stop offset="0.491388" stop-color="#484848" stop-opacity="0.36"/>
<stop offset="1" stop-color="#484848"/>
</linearGradient>
<clipPath id="clip0_174_76">
<rect width="1440" height="821" fill="white" transform="translate(-446)"/>
</clipPath>
</defs>
</svg>
