<svg width="360" height="821" viewBox="0 0 360 821" fill="none" xmlns="http://www.w3.org/2000/svg">
<g clip-path="url(#clip0_174_507)">
<path d="M146.665 579.826C137.979 614.129 113.671 642.789 77.0682 665.233C40.4629 687.679 -8.41059 703.887 -66.1512 713.283C-181.631 732.073 -332.48 723.595 -491.316 683.373C-650.152 643.15 -786.855 578.81 -879.473 507.322C-925.782 471.578 -961.051 434.062 -982.561 396.899C-1004.07 359.74 -1011.81 322.964 -1003.12 288.661C-994.435 254.359 -970.127 225.698 -933.524 203.254C-896.919 180.809 -848.045 164.6 -790.305 155.205C-674.825 136.414 -523.976 144.892 -365.14 185.115C-206.304 225.337 -69.6012 289.677 23.0168 361.165C69.3266 396.909 104.595 434.426 126.106 471.588C147.615 508.748 155.352 545.523 146.665 579.826Z" stroke="url(#paint0_linear_174_507)"/>
<path d="M407.272 645.82C394.632 695.733 359.266 737.418 306.051 770.049C252.833 802.681 181.792 826.238 97.8809 839.892C-69.9401 867.199 -289.145 854.877 -519.946 796.431C-750.746 737.984 -949.396 644.491 -1083.99 540.601C-1151.29 488.656 -1202.56 434.126 -1233.83 380.098C-1265.1 326.073 -1276.37 272.58 -1263.73 222.667C-1251.09 172.754 -1215.72 131.069 -1162.51 98.4388C-1109.29 65.8067 -1038.25 42.2494 -954.337 28.5956C-786.516 1.28844 -567.311 13.6104 -336.51 72.0569C-105.71 130.503 92.9404 223.996 227.538 327.886C294.837 379.831 346.104 434.361 377.376 488.389C408.647 542.414 419.911 595.908 407.272 645.82Z" stroke="url(#paint1_linear_174_507)"/>
<path d="M724.381 726.123C706.932 795.03 658.11 852.564 584.68 897.589C511.248 942.617 413.234 975.116 297.477 993.951C65.9665 1031.62 -236.415 1014.62 -554.783 934.001C-873.151 853.379 -1147.18 724.413 -1332.86 581.096C-1425.7 509.437 -1496.43 434.205 -1539.58 359.655C-1582.73 285.107 -1598.29 211.272 -1580.84 142.365C-1563.39 73.4573 -1514.57 15.9239 -1441.14 -29.1017C-1367.7 -74.129 -1269.69 -106.628 -1153.93 -125.464C-922.423 -163.134 -620.041 -146.135 -301.673 -65.5132C16.6952 15.1082 290.723 144.075 476.402 287.392C569.242 359.051 639.975 434.283 683.126 508.833C726.276 583.38 741.831 657.216 724.381 726.123Z" stroke="url(#paint2_linear_174_507)"/>
</g>
<defs>
<linearGradient id="paint0_linear_174_507" x1="-963.304" y1="268.796" x2="32.7552" y2="682.025" gradientUnits="userSpaceOnUse">
<stop stop-color="#484848"/>
<stop offset="0.491388" stop-color="#484848" stop-opacity="0.36"/>
<stop offset="1" stop-color="#484848"/>
</linearGradient>
<linearGradient id="paint1_linear_174_507" x1="-1205.66" y1="193.859" x2="241.549" y2="794.253" gradientUnits="userSpaceOnUse">
<stop stop-color="#484848"/>
<stop offset="0.491388" stop-color="#484848" stop-opacity="0.36"/>
<stop offset="1" stop-color="#484848"/>
</linearGradient>
<linearGradient id="paint2_linear_174_507" x1="-1500.55" y1="102.676" x2="495.611" y2="930.813" gradientUnits="userSpaceOnUse">
<stop stop-color="#484848"/>
<stop offset="0.491388" stop-color="#484848" stop-opacity="0.36"/>
<stop offset="1" stop-color="#484848"/>
</linearGradient>
<clipPath id="clip0_174_507">
<rect width="1440" height="821" fill="white" transform="translate(-1048)"/>
</clipPath>
</defs>
</svg>
