<svg width="148" height="33" viewBox="0 0 148 33" fill="none" xmlns="http://www.w3.org/2000/svg">
<g clip-path="url(#clip0_2_832)">
<g clip-path="url(#clip1_2_832)">
<path d="M141.945 11.2594C143.634 11.2594 144.996 11.7768 146.031 12.8115C147.081 13.8311 147.606 15.155 147.606 16.7832C147.606 18.4114 147.081 19.7429 146.031 20.7777C144.996 21.7973 143.634 22.307 141.945 22.307C140.241 22.307 138.863 21.7973 137.813 20.7777C136.779 19.7429 136.261 18.4114 136.261 16.7832C136.261 15.155 136.779 13.8311 137.813 12.8115C138.863 11.7768 140.241 11.2594 141.945 11.2594ZM140.119 18.9288C140.575 19.4766 141.184 19.7506 141.945 19.7506C142.706 19.7506 143.307 19.4766 143.748 18.9288C144.205 18.381 144.433 17.6658 144.433 16.7832C144.433 15.9006 144.205 15.1854 143.748 14.6376C143.307 14.0898 142.706 13.8159 141.945 13.8159C141.184 13.8159 140.575 14.0898 140.119 14.6376C139.662 15.1854 139.434 15.9006 139.434 16.7832C139.434 17.6658 139.662 18.381 140.119 18.9288Z" fill="white"/>
<path d="M117.869 11.2594C119.253 11.2594 120.349 11.6246 121.156 12.355C121.977 13.0702 122.388 13.968 122.388 15.0485L122.32 15.8474L119.558 16.0071C119.588 15.9463 119.603 15.7865 119.603 15.5278C119.603 15.0409 119.444 14.6376 119.124 14.318C118.82 13.9833 118.386 13.8159 117.823 13.8159C117.108 13.8159 116.53 14.0822 116.088 14.6148C115.662 15.1474 115.449 15.8474 115.449 16.7147C115.449 17.6582 115.685 18.4038 116.157 18.9517C116.644 19.4843 117.336 19.7506 118.234 19.7506C119.512 19.7506 120.494 19.3321 121.178 18.4951L122.708 20.4581C122.312 20.9603 121.711 21.394 120.904 21.7592C120.098 22.1244 119.139 22.307 118.028 22.307C116.248 22.307 114.84 21.8049 113.806 20.8005C112.786 19.781 112.276 18.4571 112.276 16.8289C112.276 15.1702 112.794 13.8311 113.829 12.8115C114.863 11.7768 116.21 11.2594 117.869 11.2594Z" fill="white"/>
<path d="M106.492 19.9332C107.603 19.9332 108.531 19.5223 109.277 18.7006L110.76 20.4125C110.35 20.9451 109.741 21.394 108.934 21.7592C108.143 22.1244 107.207 22.307 106.127 22.307C104.346 22.307 102.931 21.7973 101.881 20.7777C100.846 19.7582 100.329 18.4267 100.329 16.7832C100.329 15.155 100.831 13.8311 101.836 12.8115C102.84 11.7768 104.171 11.2594 105.83 11.2594C107.367 11.2594 108.577 11.7311 109.459 12.6746C110.342 13.6181 110.783 14.843 110.783 16.3495L110.692 17.4908H103.433C103.57 18.2364 103.898 18.8299 104.415 19.2712C104.932 19.7125 105.625 19.9332 106.492 19.9332ZM105.83 13.6333C105.206 13.6333 104.674 13.8311 104.232 14.2267C103.806 14.6072 103.54 15.155 103.433 15.8702H107.93C107.915 15.2159 107.717 14.6833 107.337 14.2724C106.971 13.8463 106.469 13.6333 105.83 13.6333Z" fill="white"/>
<path d="M95.8545 11.3964H98.3197V21.7592C98.3197 23.3418 97.7719 24.6124 96.6763 25.5711C95.5806 26.5298 94.1122 27.0091 92.2709 27.0091C90.3079 27.0091 88.6949 26.583 87.4319 25.7309L87.7442 23.5754C88.7333 24.3211 90.8481 24.4983 92.2024 24.4983C93.1155 24.4983 93.8383 24.27 94.3709 23.8135C94.9187 23.3722 95.1926 22.7179 95.1926 21.8505V20.5266C94.4926 21.5462 93.4122 22.0559 91.9513 22.0559C90.5209 22.0559 89.3492 21.5842 88.4362 20.6408C87.5232 19.6821 87.0667 18.3506 87.0667 16.6463C87.0667 15.018 87.5003 13.717 88.3677 12.7431C89.2351 11.754 90.4068 11.2594 91.8829 11.2594C93.6024 11.2594 94.7817 11.9822 95.4208 13.4278H95.4893C95.4741 13.2605 95.5045 12.9561 95.5806 12.5148C95.6567 12.0735 95.748 11.7007 95.8545 11.3964ZM92.7274 19.431C93.4731 19.431 94.0665 19.1723 94.5078 18.6549C94.9643 18.1223 95.1926 17.5365 95.1926 16.8973V16.418C95.1926 15.7332 94.9643 15.1398 94.5078 14.6376C94.0513 14.1354 93.435 13.8844 92.6589 13.8844C91.9285 13.8844 91.3427 14.1354 90.9014 14.6376C90.4601 15.1398 90.2394 15.8093 90.2394 16.6463C90.2394 17.4984 90.4601 18.1756 90.9014 18.6777C91.3579 19.1799 91.9666 19.431 92.7274 19.431Z" fill="white"/>
<path d="M81.0996 11.2594C82.393 11.2594 83.3821 11.655 84.0669 12.4463C84.7669 13.2376 85.1169 14.2724 85.1169 15.5506V22.1701H81.9898V16.0984C81.9898 15.4441 81.8224 14.9267 81.4876 14.5463C81.168 14.1507 80.7039 13.9528 80.0952 13.9528C79.3496 13.9528 78.779 14.2191 78.3833 14.7517C78.0029 15.2843 77.8127 15.9006 77.8127 16.6006V22.1701H74.6855V11.3964L77.1279 11.3051C77.3866 12.1116 77.5159 12.8648 77.5159 13.5648H77.6072C78.2311 12.0279 79.3952 11.2594 81.0996 11.2594Z" fill="white"/>
<path d="M72.5853 7.94958C72.5853 8.51261 72.3875 8.97674 71.9918 9.34195C71.5962 9.70716 71.1169 9.88976 70.5538 9.88976C69.9908 9.88976 69.5115 9.70716 69.1158 9.34195C68.7354 8.97674 68.5452 8.51261 68.5452 7.94958C68.5452 7.40176 68.7354 6.94525 69.1158 6.58004C69.5115 6.19961 69.9908 6.0094 70.5538 6.0094C71.1169 6.0094 71.5962 6.19961 71.9918 6.58004C72.3875 6.94525 72.5853 7.40176 72.5853 7.94958ZM68.9789 22.17V11.3963L72.106 11.305V22.17H68.9789Z" fill="white"/>
<path d="M61.3193 11.2594C63.0084 11.2594 64.3704 11.7768 65.4051 12.8115C66.4551 13.8311 66.9801 15.155 66.9801 16.7832C66.9801 18.4114 66.4551 19.7429 65.4051 20.7777C64.3704 21.7973 63.0084 22.307 61.3193 22.307C59.615 22.307 58.2379 21.7973 57.1879 20.7777C56.1531 19.7429 55.6357 18.4114 55.6357 16.7832C55.6357 15.155 56.1531 13.8311 57.1879 12.8115C58.2379 11.7768 59.615 11.2594 61.3193 11.2594ZM59.4933 18.9288C59.9498 19.4766 60.5585 19.7506 61.3193 19.7506C62.0802 19.7506 62.6813 19.4766 63.1226 18.9288C63.5791 18.381 63.8073 17.6658 63.8073 16.7832C63.8073 15.9006 63.5791 15.1854 63.1226 14.6376C62.6813 14.0898 62.0802 13.8159 61.3193 13.8159C60.5585 13.8159 59.9498 14.0898 59.4933 14.6376C59.0368 15.1854 58.8085 15.9006 58.8085 16.7832C58.8085 17.6658 59.0368 18.381 59.4933 18.9288Z" fill="white"/>
<path d="M49.5923 11.2594C50.977 11.2594 52.0727 11.6246 52.8792 12.355C53.7009 13.0702 54.1118 13.968 54.1118 15.0485L54.0433 15.8474L51.2814 16.0071C51.3118 15.9463 51.327 15.7865 51.327 15.5278C51.327 15.0409 51.1673 14.6376 50.8477 14.318C50.5434 13.9833 50.1097 13.8159 49.5466 13.8159C48.8314 13.8159 48.2532 14.0822 47.8119 14.6148C47.3858 15.1474 47.1728 15.8474 47.1728 16.7147C47.1728 17.6582 47.4086 18.4038 47.8804 18.9517C48.3673 19.4843 49.0597 19.7506 49.9575 19.7506C51.2357 19.7506 52.2172 19.3321 52.902 18.4951L54.4313 20.4581C54.0357 20.9603 53.4346 21.394 52.6281 21.7592C51.8216 22.1244 50.8629 22.307 49.7521 22.307C47.9717 22.307 46.5641 21.8049 45.5293 20.8005C44.5098 19.781 44 18.4571 44 16.8289C44 15.1702 44.5174 13.8311 45.5521 12.8115C46.5869 11.7768 47.9336 11.2594 49.5923 11.2594Z" fill="white"/>
<path d="M132.411 17.3741C133.059 18.509 133.706 19.4324 134.381 20.3942C134.673 20.8115 134.971 21.236 135.276 21.6882C135.664 22.2627 135.161 22.9512 134.521 22.6863C132.023 21.6532 130.199 19.7092 128.949 17.879H127.61V22.1702H124.483V6.0553H127.61V15.4367H128.934C129.786 15.4367 130.456 15.178 130.943 14.6606C131.43 14.1432 131.673 13.4052 131.673 12.4465C131.673 12.203 131.643 11.853 131.582 11.3965H134.572C134.648 11.7465 134.686 12.1193 134.686 12.515C134.686 14.6344 133.74 16.4501 132.411 17.3741Z" fill="white"/>
</g>
<g clip-path="url(#clip2_2_832)">
<path d="M31.9998 16.3822C32.0398 25.2824 24.9085 32.5295 16.0727 32.5698C7.23579 32.6101 0.0401701 25.4277 0.000167473 16.5274C-0.0398351 7.6272 7.09154 0.380047 15.9285 0.339758C24.7642 0.30069 31.9598 7.48192 31.9998 16.3822Z" fill="#FFE866"/>
<path d="M24.1145 10.6882C22.9532 10.35 21.7507 9.86899 20.5313 9.3843C20.4609 9.07663 20.1906 8.69328 19.6427 8.22324C18.8463 7.52733 17.3504 7.54565 16.0582 7.85331C14.6315 7.51512 13.2217 7.39426 11.8689 7.72145C0.806333 10.792 7.07826 18.2796 3.01617 25.8088C3.59439 27.0431 9.97172 32.9734 18.8378 32.3149C18.8378 32.3149 15.7552 24.8541 22.712 21.272C28.3548 18.3675 32.4314 12.9737 24.1133 10.687L24.1145 10.6882Z" fill="#4BCC00"/>
<path d="M16.8243 12.4834C16.8243 14.2048 15.4388 15.5991 13.7308 15.5991C12.0228 15.5991 10.6373 14.2048 10.6373 12.4834C10.6373 10.7619 12.0228 9.3689 13.7308 9.3689C15.4388 9.3689 16.8243 10.7631 16.8243 12.4834Z" fill="white"/>
<path d="M27.9862 16.9674C25.4806 18.7462 22.6283 20.0953 18.5856 20.0953C16.6933 20.0953 16.3091 18.0698 15.0581 19.0624C14.412 19.5752 12.1355 20.7216 10.3281 20.6349C8.50493 20.547 5.59444 19.4799 4.77621 15.5963C4.45255 19.4799 4.28769 22.3417 2.83911 25.621C6.39506 30.847 12.5951 33.4471 18.8377 32.3163C18.1674 27.6 22.2598 22.9814 24.5654 20.6178C25.4382 19.7229 27.111 18.2615 27.9862 16.9674Z" fill="#4BCC00"/>
<ellipse cx="15.0348" cy="12.4621" rx="1.81532" ry="2.54145" fill="#0D1217"/>
<path d="M15.7609 7.8474C16.7513 8.24326 20.3681 9.44791 21.933 9.92079C20.3352 7.26971 17.914 7.42269 15.7609 7.8474Z" fill="#35AF00"/>
<path d="M15.0347 12.4618L12.8563 11.0095V13.914L15.0347 12.4618Z" fill="white"/>
</g>
</g>
<defs>
<clipPath id="clip0_2_832">
<rect width="148" height="32.3396" fill="white" transform="translate(0 0.3396)"/>
</clipPath>
<clipPath id="clip1_2_832">
<rect width="104" height="21" fill="white" transform="translate(44 6.0094)"/>
</clipPath>
<clipPath id="clip2_2_832">
<rect width="32" height="32.3396" fill="white" transform="translate(0 0.3396)"/>
</clipPath>
</defs>
</svg>
