<svg width="169" height="1452" viewBox="0 0 169 1452" fill="none" xmlns="http://www.w3.org/2000/svg">
<path d="M2432.38 951.123C2414.93 1020.03 2366.11 1077.56 2292.68 1122.59C2219.25 1167.62 2121.23 1200.12 2005.48 1218.95C1773.97 1256.62 1471.58 1239.62 1153.22 1159C834.849 1078.38 560.821 949.413 375.142 806.096C282.302 734.437 211.569 659.205 168.418 584.655C125.268 510.107 109.713 436.272 127.163 367.365C144.612 298.457 193.434 240.924 266.864 195.898C340.296 150.871 438.31 118.372 554.067 99.5364C785.577 61.8658 1087.96 78.8654 1406.33 159.487C1724.7 240.108 1998.72 369.075 2184.4 512.392C2277.24 584.051 2347.97 659.283 2391.13 733.833C2434.28 808.38 2449.83 882.216 2432.38 951.123Z" stroke="url(#paint0_linear_175_7)"/>
<defs>
<linearGradient id="paint0_linear_175_7" x1="207.445" y1="327.676" x2="2203.61" y2="1155.81" gradientUnits="userSpaceOnUse">
<stop stop-color="#484848"/>
<stop offset="0.491388" stop-color="#484848" stop-opacity="0.36"/>
<stop offset="1" stop-color="#484848"/>
</linearGradient>
</defs>
</svg>
