<svg width="904" height="1452" viewBox="0 0 904 1452" fill="none" xmlns="http://www.w3.org/2000/svg">
<path d="M1833.27 870.82C1820.63 920.733 1785.27 962.418 1732.05 995.049C1678.83 1027.68 1607.79 1051.24 1523.88 1064.89C1356.06 1092.2 1136.85 1079.88 906.054 1021.43C675.254 962.984 476.604 869.491 342.006 765.601C274.706 713.656 223.44 659.126 192.167 605.098C160.896 551.073 149.632 497.58 162.272 447.667C174.912 397.754 210.278 356.069 263.493 323.439C316.711 290.807 387.752 267.249 471.663 253.596C639.484 226.288 858.689 238.61 1089.49 297.057C1320.29 355.503 1518.94 448.996 1653.54 552.886C1720.84 604.831 1772.1 659.361 1803.38 713.389C1834.65 767.414 1845.91 820.908 1833.27 870.82Z" stroke="url(#paint0_linear_175_6)"/>
<path d="M1572.67 804.826C1563.98 839.129 1539.67 867.789 1503.07 890.233C1466.46 912.679 1417.59 928.887 1359.85 938.283C1244.37 957.073 1093.52 948.595 934.685 908.373C775.849 868.15 639.146 803.81 546.528 732.322C500.218 696.578 464.949 659.062 443.439 621.899C421.93 584.74 414.193 547.964 422.879 513.661C431.566 479.359 455.874 450.698 492.476 428.254C529.082 405.809 577.955 389.6 635.696 380.205C751.175 361.414 902.024 369.892 1060.86 410.115C1219.7 450.337 1356.4 514.677 1449.02 586.165C1495.33 621.909 1530.6 659.426 1552.11 696.588C1573.61 733.748 1581.35 770.523 1572.67 804.826Z" stroke="url(#paint1_linear_175_6)"/>
<path d="M2150.38 951.123C2132.93 1020.03 2084.11 1077.56 2010.68 1122.59C1937.25 1167.62 1839.23 1200.12 1723.48 1218.95C1491.97 1256.62 1189.58 1239.62 871.217 1159C552.849 1078.38 278.821 949.413 93.142 806.096C0.301953 734.437 -70.4309 659.205 -113.582 584.655C-156.732 510.107 -172.287 436.272 -154.837 367.365C-137.388 298.457 -88.5657 240.924 -15.136 195.898C58.2964 150.871 156.31 118.372 272.067 99.5364C503.577 61.8658 805.959 78.8654 1124.33 159.487C1442.7 240.108 1716.72 369.075 1902.4 512.392C1995.24 584.051 2065.97 659.283 2109.13 733.833C2152.28 808.38 2167.83 882.216 2150.38 951.123Z" stroke="url(#paint2_linear_175_6)"/>
<defs>
<linearGradient id="paint0_linear_175_6" x1="220.343" y1="418.859" x2="1667.55" y2="1019.25" gradientUnits="userSpaceOnUse">
<stop stop-color="#484848"/>
<stop offset="0.491388" stop-color="#484848" stop-opacity="0.36"/>
<stop offset="1" stop-color="#484848"/>
</linearGradient>
<linearGradient id="paint1_linear_175_6" x1="462.696" y1="493.796" x2="1458.76" y2="907.025" gradientUnits="userSpaceOnUse">
<stop stop-color="#484848"/>
<stop offset="0.491388" stop-color="#484848" stop-opacity="0.36"/>
<stop offset="1" stop-color="#484848"/>
</linearGradient>
<linearGradient id="paint2_linear_175_6" x1="-74.5548" y1="327.676" x2="1921.61" y2="1155.81" gradientUnits="userSpaceOnUse">
<stop stop-color="#484848"/>
<stop offset="0.491388" stop-color="#484848" stop-opacity="0.36"/>
<stop offset="1" stop-color="#484848"/>
</linearGradient>
</defs>
</svg>
