<svg xmlns="http://www.w3.org/2000/svg" width="1632" height="1021" viewBox="0 0 1632 1021" fill="none">
<path d="M1194.67 579.826C1185.98 614.129 1161.67 642.789 1125.07 665.233C1088.46 687.679 1039.59 703.887 981.849 713.283C866.37 732.073 715.521 723.595 556.685 683.373C397.849 643.15 261.146 578.81 168.528 507.322C122.218 471.578 86.9493 434.062 65.4388 396.899C43.9299 359.74 36.1925 322.964 44.8791 288.661C53.5657 254.359 77.8737 225.698 114.476 203.254C151.082 180.809 199.955 164.6 257.696 155.205C373.175 136.414 524.024 144.892 682.86 185.115C841.696 225.337 978.399 289.677 1071.02 361.165C1117.33 396.909 1152.6 434.426 1174.11 471.588C1195.61 508.748 1203.35 545.523 1194.67 579.826Z" stroke="url(#paint0_linear_170_74)"/>
<path d="M1455.27 645.821C1442.63 695.733 1407.27 737.418 1354.05 770.049C1300.83 802.681 1229.79 826.238 1145.88 839.892C978.06 867.199 758.855 854.877 528.054 796.431C297.254 737.984 98.6035 644.491 -35.9941 540.602C-103.294 488.656 -154.56 434.127 -185.833 380.099C-217.104 326.073 -228.368 272.58 -215.728 222.667C-203.088 172.755 -167.722 131.07 -114.507 98.4391C-61.2891 65.8069 9.75156 42.2496 93.663 28.5959C261.484 1.28869 480.689 13.6107 711.49 72.0571C942.29 130.504 1140.94 223.997 1275.54 327.886C1342.84 379.832 1394.1 434.361 1425.38 488.389C1456.65 542.414 1467.91 595.908 1455.27 645.821Z" stroke="url(#paint1_linear_170_74)"/>
<path d="M1772.38 726.123C1754.93 795.03 1706.11 852.564 1632.68 897.589C1559.25 942.617 1461.23 975.116 1345.48 993.951C1113.97 1031.62 811.585 1014.62 493.217 934.001C174.849 853.379 -99.1792 724.413 -284.858 581.096C-377.698 509.437 -448.431 434.205 -491.582 359.655C-534.732 285.107 -550.287 211.272 -532.837 142.365C-515.388 73.4573 -466.566 15.9239 -393.136 -29.1017C-319.704 -74.129 -221.69 -106.628 -105.933 -125.464C125.577 -163.134 427.959 -146.135 746.327 -65.5132C1064.7 15.1082 1338.72 144.075 1524.4 287.392C1617.24 359.051 1687.97 434.283 1731.13 508.833C1774.28 583.38 1789.83 657.216 1772.38 726.123Z" stroke="url(#paint2_linear_170_74)"/>
<defs>
<linearGradient id="paint0_linear_170_74" x1="84.6962" y1="268.796" x2="1080.76" y2="682.025" gradientUnits="userSpaceOnUse">
<stop stop-color="#484848"/>
<stop offset="0.491388" stop-color="#484848" stop-opacity="0.36"/>
<stop offset="1" stop-color="#484848"/>
</linearGradient>
<linearGradient id="paint1_linear_170_74" x1="-157.657" y1="193.859" x2="1289.55" y2="794.253" gradientUnits="userSpaceOnUse">
<stop stop-color="#484848"/>
<stop offset="0.491388" stop-color="#484848" stop-opacity="0.36"/>
<stop offset="1" stop-color="#484848"/>
</linearGradient>
<linearGradient id="paint2_linear_170_74" x1="-452.555" y1="102.676" x2="1543.61" y2="930.813" gradientUnits="userSpaceOnUse">
<stop stop-color="#484848"/>
<stop offset="0.491388" stop-color="#484848" stop-opacity="0.36"/>
<stop offset="1" stop-color="#484848"/>
</linearGradient>
</defs>
</svg>
