<svg width="1302" height="1585" viewBox="0 0 1302 1585" fill="none" xmlns="http://www.w3.org/2000/svg">
<path d="M2115.27 1003.82C2102.63 1053.73 2067.27 1095.42 2014.05 1128.05C1960.83 1160.68 1889.79 1184.24 1805.88 1197.89C1638.06 1225.2 1418.85 1212.88 1188.05 1154.43C957.254 1095.98 758.604 1002.49 624.006 898.601C556.706 846.656 505.44 792.126 474.167 738.098C442.896 684.073 431.632 630.58 444.272 580.667C456.912 530.754 492.278 489.069 545.493 456.439C598.711 423.807 669.752 400.249 753.663 386.596C921.484 359.288 1140.69 371.61 1371.49 430.057C1602.29 488.503 1800.94 581.996 1935.54 685.886C2002.84 737.831 2054.1 792.361 2085.38 846.389C2116.65 900.414 2127.91 953.908 2115.27 1003.82Z" stroke="url(#paint0_linear_175_2)"/>
<path d="M1854.67 937.826C1845.98 972.129 1821.67 1000.79 1785.07 1023.23C1748.46 1045.68 1699.59 1061.89 1641.85 1071.28C1526.37 1090.07 1375.52 1081.6 1216.68 1041.37C1057.85 1001.15 921.146 936.81 828.528 865.322C782.218 829.578 746.949 792.062 725.439 754.899C703.93 717.74 696.193 680.964 704.879 646.661C713.566 612.359 737.874 583.698 774.476 561.254C811.082 538.809 859.955 522.6 917.696 513.205C1033.18 494.414 1184.02 502.892 1342.86 543.115C1501.7 583.337 1638.4 647.677 1731.02 719.165C1777.33 754.909 1812.6 792.426 1834.11 829.588C1855.61 866.748 1863.35 903.523 1854.67 937.826Z" stroke="url(#paint1_linear_175_2)"/>
<path d="M2432.38 1084.12C2414.93 1153.03 2366.11 1210.56 2292.68 1255.59C2219.25 1300.62 2121.23 1333.12 2005.48 1351.95C1773.97 1389.62 1471.58 1372.62 1153.22 1292C834.849 1211.38 560.821 1082.41 375.142 939.096C282.302 867.437 211.569 792.205 168.418 717.655C125.268 643.107 109.713 569.272 127.163 500.365C144.612 431.457 193.434 373.924 266.864 328.898C340.296 283.871 438.31 251.372 554.067 232.536C785.577 194.866 1087.96 211.865 1406.33 292.487C1724.7 373.108 1998.72 502.075 2184.4 645.392C2277.24 717.051 2347.97 792.283 2391.13 866.833C2434.28 941.38 2449.83 1015.22 2432.38 1084.12Z" stroke="url(#paint2_linear_175_2)"/>
<defs>
<linearGradient id="paint0_linear_175_2" x1="502.343" y1="551.859" x2="1949.55" y2="1152.25" gradientUnits="userSpaceOnUse">
<stop stop-color="#484848"/>
<stop offset="0.491388" stop-color="#484848" stop-opacity="0.36"/>
<stop offset="1" stop-color="#484848"/>
</linearGradient>
<linearGradient id="paint1_linear_175_2" x1="744.696" y1="626.796" x2="1740.76" y2="1040.02" gradientUnits="userSpaceOnUse">
<stop stop-color="#484848"/>
<stop offset="0.491388" stop-color="#484848" stop-opacity="0.36"/>
<stop offset="1" stop-color="#484848"/>
</linearGradient>
<linearGradient id="paint2_linear_175_2" x1="207.445" y1="460.676" x2="2203.61" y2="1288.81" gradientUnits="userSpaceOnUse">
<stop stop-color="#484848"/>
<stop offset="0.491388" stop-color="#484848" stop-opacity="0.36"/>
<stop offset="1" stop-color="#484848"/>
</linearGradient>
</defs>
</svg>
