<svg width="360" height="1452" viewBox="0 0 360 1452" fill="none" xmlns="http://www.w3.org/2000/svg">
<path d="M1597.27 870.82C1584.63 920.733 1549.27 962.418 1496.05 995.049C1442.83 1027.68 1371.79 1051.24 1287.88 1064.89C1120.06 1092.2 900.855 1079.88 670.054 1021.43C439.254 962.984 240.604 869.491 106.006 765.601C38.7065 713.656 -12.56 659.126 -43.8326 605.098C-75.1037 551.073 -86.3675 497.58 -73.728 447.667C-61.0884 397.754 -25.7222 356.069 27.493 323.439C80.7109 290.807 151.752 267.249 235.663 253.596C403.484 226.288 622.689 238.61 853.49 297.057C1084.29 355.503 1282.94 448.996 1417.54 552.886C1484.84 604.831 1536.1 659.361 1567.38 713.389C1598.65 767.414 1609.91 820.908 1597.27 870.82Z" stroke="url(#paint0_linear_175_10)"/>
<path d="M1336.67 804.826C1327.98 839.129 1303.67 867.789 1267.07 890.233C1230.46 912.679 1181.59 928.887 1123.85 938.283C1008.37 957.073 857.52 948.595 698.684 908.373C539.848 868.15 403.145 803.81 310.527 732.322C264.218 696.578 228.949 659.062 207.439 621.899C185.93 584.74 178.192 547.964 186.879 513.661C195.565 479.359 219.873 450.698 256.476 428.254C293.081 405.809 341.955 389.6 399.695 380.205C515.175 361.414 666.024 369.892 824.86 410.115C983.696 450.337 1120.4 514.677 1213.02 586.165C1259.33 621.909 1294.6 659.426 1316.11 696.588C1337.61 733.748 1345.35 770.523 1336.67 804.826Z" stroke="url(#paint1_linear_175_10)"/>
<path d="M1914.38 951.123C1896.93 1020.03 1848.11 1077.56 1774.68 1122.59C1701.25 1167.62 1603.23 1200.12 1487.48 1218.95C1255.97 1256.62 953.585 1239.62 635.217 1159C316.849 1078.38 42.8208 949.413 -142.858 806.096C-235.698 734.437 -306.431 659.205 -349.582 584.655C-392.732 510.107 -408.287 436.272 -390.837 367.365C-373.388 298.457 -324.566 240.924 -251.136 195.898C-177.704 150.871 -79.6897 118.372 36.0666 99.5364C267.577 61.8658 569.959 78.8654 888.327 159.487C1206.7 240.108 1480.72 369.075 1666.4 512.392C1759.24 584.051 1829.97 659.283 1873.13 733.833C1916.28 808.38 1931.83 882.216 1914.38 951.123Z" stroke="url(#paint2_linear_175_10)"/>
<defs>
<linearGradient id="paint0_linear_175_10" x1="-15.657" y1="418.859" x2="1431.55" y2="1019.25" gradientUnits="userSpaceOnUse">
<stop stop-color="#484848"/>
<stop offset="0.491388" stop-color="#484848" stop-opacity="0.36"/>
<stop offset="1" stop-color="#484848"/>
</linearGradient>
<linearGradient id="paint1_linear_175_10" x1="226.696" y1="493.796" x2="1222.76" y2="907.025" gradientUnits="userSpaceOnUse">
<stop stop-color="#484848"/>
<stop offset="0.491388" stop-color="#484848" stop-opacity="0.36"/>
<stop offset="1" stop-color="#484848"/>
</linearGradient>
<linearGradient id="paint2_linear_175_10" x1="-310.555" y1="327.676" x2="1685.61" y2="1155.81" gradientUnits="userSpaceOnUse">
<stop stop-color="#484848"/>
<stop offset="0.491388" stop-color="#484848" stop-opacity="0.36"/>
<stop offset="1" stop-color="#484848"/>
</linearGradient>
</defs>
</svg>
