<svg width="33" height="16" viewBox="0 0 33 16" fill="none" xmlns="http://www.w3.org/2000/svg">
<path d="M24.5153 0.495117C22.4053 0.495117 20.4991 1.36566 19.1357 2.76716L17.3183 4.63521L19.2833 6.65459L21.1545 4.73089C22.0069 3.85472 23.1989 3.30938 24.5153 3.30938C27.1013 3.30938 29.2058 5.41382 29.2058 8.00044C29.2058 10.5864 27.1013 12.6909 24.5153 12.6909C23.1989 12.6909 22.0069 12.1455 21.1545 11.2687C13.8039 3.7125 12.8952 2.77836 12.8843 2.76716C11.521 1.36566 9.61476 0.495117 7.50469 0.495117C3.36023 0.495117 0 3.85534 0 8.00044C0 12.1449 3.36023 15.5051 7.50469 15.5051C9.61476 15.5051 11.521 14.6346 12.8843 13.2331L14.7017 11.365L12.7367 9.34565L10.8655 11.2687C10.0131 12.1455 8.82114 12.6909 7.50469 12.6909C4.9187 12.6909 2.81426 10.5864 2.81426 8.00044C2.81426 5.41382 4.9187 3.30938 7.50469 3.30938C8.82114 3.30938 10.0131 3.85472 10.8655 4.73089C11.1877 5.0621 19.0584 13.1537 19.1357 13.2331C20.4991 14.6346 22.4053 15.5051 24.5153 15.5051C28.6598 15.5051 32.02 12.1449 32.02 8.00044C32.02 3.85534 28.6598 0.495117 24.5153 0.495117Z" fill="#FF914A"/>
</svg>
