<svg width="35" height="32" viewBox="0 0 35 32" fill="none" xmlns="http://www.w3.org/2000/svg">
<path d="M5.12695 10.8333C7.01682 10.8333 8.74761 9.79077 9.64394 8.1125C10.0952 7.26764 11.1588 6.7 12.2906 6.7H14.5062C15.6142 6.7 16.6262 7.25442 17.0845 8.1125C17.9809 9.79077 19.7117 10.8333 21.6016 10.8333C24.4286 10.8333 26.7285 8.51557 26.7285 5.66667C26.7285 2.81777 24.4286 0.5 21.6016 0.5C19.7117 0.5 17.9809 1.54256 17.0846 3.22084C16.6263 4.07892 15.6142 4.63333 14.5063 4.63333C13.7313 4.63333 13.0655 4.63333 12.2907 4.63333C11.1588 4.63333 10.0952 4.06569 9.644 3.22084C8.74761 1.54256 7.01682 0.5 5.12695 0.5C2.29995 0.5 0 2.81777 0 5.66667C0 8.51557 2.29995 10.8333 5.12695 10.8333ZM18.8904 4.2003C19.4286 3.19266 20.4674 2.56667 21.6016 2.56667C23.2978 2.56667 24.6777 3.95733 24.6777 5.66667C24.6777 7.37601 23.2978 8.76667 21.6016 8.76667C20.4674 8.76667 19.4286 8.14067 18.8904 7.13304C18.5821 6.55582 18.1539 6.06057 17.6399 5.66667C18.1538 5.27276 18.5821 4.77745 18.8904 4.2003ZM5.12695 2.56667C6.2611 2.56667 7.29996 3.19266 7.83809 4.2003C8.14434 4.77373 8.58436 5.27042 9.11518 5.66667C8.5843 6.06298 8.14434 6.5596 7.83809 7.13304C7.29996 8.14067 6.2611 8.76667 5.12695 8.76667C3.43075 8.76667 2.05078 7.37601 2.05078 5.66667C2.05078 3.95733 3.43075 2.56667 5.12695 2.56667Z" fill="#FF914A"/>
<path d="M20.5762 4.63333H22.627V6.7H20.5762V4.63333Z" fill="#FF914A"/>
<path d="M5.12695 31.5C7.01682 31.5 8.74761 30.4574 9.64394 28.7792C10.1022 27.9212 11.1143 27.3667 12.2222 27.3667H14.5062C15.6142 27.3667 16.6262 27.9212 17.0845 28.7792C17.9809 30.4574 19.7117 31.5 21.6016 31.5C24.4286 31.5 26.7285 29.1822 26.7285 26.3333C26.7285 23.4844 24.4286 21.1667 21.6016 21.1667C19.7117 21.1667 17.9809 22.2092 17.0846 23.8875C16.6263 24.7455 15.6142 25.3 14.5063 25.3C13.7107 25.3 13.0296 25.3 12.2223 25.3C11.1143 25.3 10.1023 24.7455 9.644 23.8875C8.74761 22.2092 7.01682 21.1667 5.12695 21.1667C2.29995 21.1667 0 23.4844 0 26.3333C0 29.1822 2.29995 31.5 5.12695 31.5ZM18.8904 24.867C19.4286 23.8593 20.4674 23.2333 21.6016 23.2333C23.2978 23.2333 24.6777 24.624 24.6777 26.3333C24.6777 28.0427 23.2978 29.4333 21.6016 29.4333C20.4674 29.4333 19.4286 28.8074 18.8904 27.7997C18.5821 27.2225 18.1539 26.7272 17.6399 26.3333C18.1538 25.9394 18.5821 25.4441 18.8904 24.867ZM5.12695 23.2333C6.2611 23.2333 7.29996 23.8593 7.83809 24.867C8.14639 25.4442 8.57466 25.9394 9.08858 26.3333C8.57466 26.7272 8.14639 27.2226 7.83809 27.7997C7.29996 28.8074 6.2611 29.4333 5.12695 29.4333C3.43075 29.4333 2.05078 28.0427 2.05078 26.3333C2.05078 24.624 3.43075 23.2333 5.12695 23.2333Z" fill="#FF914A"/>
<path d="M20.5762 25.3H22.627V27.3667H20.5762V25.3Z" fill="#FF914A"/>
<path d="M25.2877 13.5542C24.8294 14.4122 23.8174 14.9667 22.7094 14.9667C21.9345 14.9667 21.2687 14.9667 20.4937 14.9667C19.3858 14.9667 18.3737 14.4122 17.9154 13.5542C17.0191 11.8759 15.2883 10.8333 13.3984 10.8333C10.5714 10.8333 8.27148 13.1511 8.27148 16C8.27148 18.8489 10.5714 21.1667 13.3984 21.1667C15.2883 21.1667 17.0191 20.1241 17.9154 18.4458C18.3737 17.5878 19.3858 17.0333 20.4937 17.0333H22.7094C23.8174 17.0333 24.8294 17.5878 25.2877 18.4458C26.184 20.1241 27.9148 21.1667 29.8047 21.1667C32.6387 21.1667 35 18.8565 35 16C35 13.1441 32.6393 10.8333 29.8047 10.8333C27.9148 10.8333 26.184 11.8759 25.2877 13.5542ZM16.1096 17.4664C15.5714 18.4741 14.5326 19.1 13.3984 19.1C11.7022 19.1 10.3223 17.7093 10.3223 16C10.3223 14.2907 11.7022 12.9 13.3984 12.9C14.5326 12.9 15.5714 13.5259 16.1096 14.5336C16.4179 15.1109 16.8461 15.6061 17.3601 16C16.8461 16.3939 16.4179 16.8892 16.1096 17.4664ZM27.0935 14.5336C27.6317 13.526 28.6705 12.9 29.8047 12.9C31.5092 12.9 32.9492 14.3196 32.9492 16C32.9492 17.6804 31.5092 19.1 29.8047 19.1C28.6705 19.1 27.6317 18.474 27.0935 17.4664C26.7853 16.8891 26.3569 16.3938 25.8431 16C26.3569 15.6061 26.7853 15.1108 27.0935 14.5336Z" fill="#FF914A"/>
<path d="M12.373 14.9667H14.4238V17.0333H12.373V14.9667Z" fill="#FF914A"/>
</svg>
