<svg width="28" height="38" viewBox="0 0 28 38" fill="none" xmlns="http://www.w3.org/2000/svg">
<path fill-rule="evenodd" clip-rule="evenodd" d="M15.1 0C15.7617 0 16.2981 0.534736 16.2981 1.19437V2.97602C16.2981 3.63563 15.7617 4.17038 15.1 4.17038C14.4384 4.17038 13.9019 3.63563 13.9019 2.97602V1.19437C13.9019 0.534736 14.4384 0 15.1 0ZM6.47474 2.3034C7.0478 1.97359 7.78053 2.16931 8.11139 2.74059L9.00498 4.28352C9.33584 4.85475 9.13949 5.58525 8.56643 5.91503C7.99342 6.24486 7.26065 6.04912 6.92983 5.47789L6.03624 3.93495C5.70538 3.36368 5.90173 2.63323 6.47474 2.3034ZM1.79737 8.16085C1.22431 7.83102 0.49158 8.02676 0.160721 8.59799C-0.170138 9.16926 0.0262113 9.89971 0.599271 10.2295L2.14703 11.1203C2.72004 11.4502 3.45282 11.2544 3.78363 10.6832C4.11449 10.1119 3.91814 9.38149 3.34513 9.05166L1.79737 8.16085Z" fill="#FF914A"/>
<path fill-rule="evenodd" clip-rule="evenodd" d="M16.6459 8.56455C17.7679 6.43297 19.6892 5.93988 21.5219 6.8985C22.9165 7.62793 23.8771 9.96333 23.1454 11.3535L19.8026 17.7048C20.6381 17.55 21.5229 17.896 22.0755 18.5276C22.3627 18.8557 22.5602 19.261 22.6145 19.7132C22.6337 19.8728 22.6351 20.0382 22.6162 20.2081C22.8697 20.2073 23.1173 20.2352 23.3539 20.2894C24.5729 20.5685 25.5005 21.5445 25.4459 22.8716C25.4426 22.9529 25.4356 23.0356 25.4246 23.1195C25.4833 23.1245 25.5416 23.132 25.5995 23.142C27.252 23.4273 28.5317 25.6961 27.7789 27.1264L24.8073 32.7723C22.3201 37.498 16.0212 39.4588 10.9595 36.8113C6.9614 34.7201 4.95689 31.88 3.80215 28.6312C3.05772 26.5368 2.4525 24.6499 1.76815 22.5164C1.4308 21.4647 1.07422 20.3531 0.672263 19.1271C-0.118067 16.7165 1.0304 14.8473 2.9169 14.1222C4.72045 13.4291 6.80791 14.6595 7.58612 16.5645L9.3369 20.1107C9.58302 20.7309 9.95991 21.2678 10.303 20.616L16.6459 8.56455ZM7.14899 21.0885L5.43617 17.6193C5.41129 17.5688 5.38816 17.5175 5.36687 17.4654C5.18531 17.0209 4.84653 16.6607 4.48889 16.4663C4.14126 16.2773 3.90561 16.3023 3.77888 16.351C3.32738 16.5246 3.0674 16.7908 2.94077 17.0473C2.82451 17.2828 2.72548 17.7005 2.94989 18.385C3.36347 19.6464 3.72511 20.774 4.06426 21.8314C4.74119 23.942 5.32858 25.7734 6.06075 27.8333C7.03983 30.5879 8.67436 32.9184 12.0728 34.696C16.0105 36.7557 20.8379 35.1727 22.6855 31.6625L25.5974 26.1298C25.5845 26.0625 25.5503 25.9552 25.4772 25.8308C25.3916 25.6852 25.29 25.5797 25.2115 25.522C25.1937 25.5089 25.1799 25.5002 25.1704 25.4947C24.5386 25.4276 23.9586 25.1128 23.5591 24.6186C23.1489 24.1113 22.9644 23.4592 23.0483 22.8131C23.0542 22.7675 23.0518 22.7424 23.0501 22.7327C23.0501 22.7327 23.0454 22.727 23.0404 22.7221C23.0039 22.6863 22.8696 22.596 22.6244 22.5969C21.9417 22.5992 21.2904 22.3111 20.834 21.8049C20.4047 21.3287 20.1863 20.7021 20.2243 20.0663C20.2178 20.0632 20.2119 20.0609 20.207 20.0593C19.3154 20.2115 18.4125 19.8501 17.8744 19.1229C17.3295 18.3867 17.2543 17.405 17.6807 16.5949L20.9989 10.2905C21.0003 10.2764 21.0015 10.2544 21.0008 10.2236C20.9984 10.1075 20.9693 9.93219 20.8906 9.72552C20.8127 9.52073 20.7053 9.33606 20.5938 9.19669C20.4895 9.06645 20.4175 9.0196 20.409 9.01413C19.9522 8.77521 19.677 8.80668 19.5448 8.84871C19.4151 8.88992 19.0997 9.04372 18.7678 9.67439L12.4249 21.7258C12.2428 22.0718 11.7907 22.8076 10.8596 23.1446C9.73306 23.5523 8.78748 23.0946 8.31161 22.7252C7.88016 22.3904 7.61653 21.9883 7.47912 21.7558C7.34364 21.5267 7.23475 21.2948 7.14899 21.0885ZM8.18913 19.4909C8.18562 19.4974 8.18198 19.5045 8.18198 19.5045L8.18111 19.5061L8.18913 19.4909Z" fill="#FF914A"/>
</svg>
