<?xml version="1.0" encoding="utf-8"?>
<!-- Generator: Adobe Illustrator 25.4.1, SVG Export Plug-In . SVG Version: 6.00 Build 0)  -->
<svg version="1.1" id="Layer_1" xmlns="http://www.w3.org/2000/svg" xmlns:xlink="http://www.w3.org/1999/xlink" x="0px" y="0px"
	 viewBox="0 0 169 39" style="enable-background:new 0 0 169 39;" xml:space="preserve">
<style type="text/css">
	.st0{fill-rule:evenodd;clip-rule:evenodd;fill:#FFFFFF;}
	.st1{fill:#FFFFFF;}
</style>
<g>
	<path class="st0" d="M25.3,1.9l-5,7.9l-1.5,6.9l8.1-6l11.8,10.9L25.3,1.9z M42.6,25.4L33.9,5.2L30.6,8L42.6,25.4z"/>
	<path class="st0" d="M43.6,31.3L39.2,23L34,18.3l1.1,10L19.8,33L43.6,31.3z M36.3,37.1l-0.7-4.3l-21,1.7L36.3,37.1z"/>
	<path class="st0" d="M25.1,30.7l-9.2-4L19.4,11L9,32.5l9.3,0.4L25.1,30.7z M20.7,5.7L7.6,23.3l4.1,1.5L20.7,5.7z M35.1,28.3
		L19.8,33l23.8-1.7L35.1,28.3z"/>
	<path class="st0" d="M15.9,26.6L19.4,11L9,32.5L15.9,26.6z M26.9,10.8l11.8,10.9L25.3,1.9L26.9,10.8z"/>
	<path class="st1" d="M65.1,26.7h-5V14h5c4,0,6.7,2.5,6.7,6.4S69.1,26.7,65.1,26.7z M65.1,24.3c2.5,0,4-1.8,4-4s-1.4-4-4-4h-2.3v7.9
		h2.3V24.3z M82.8,26.7h-9V14h9v2.4h-6.3V19h6.1v2.4h-6.1v2.9h6.3V26.7z M96.4,26.7h-3.2L90,22l-3.2,4.6h-3.2l4.6-6.5L83.9,14h3.2
		l2.9,4.3l2.9-4.3h3.3l-4.3,6.2L96.4,26.7z M100.6,23.1H96V21h4.6V23.1z M108.1,26.7h-2.7V16.4h-3.7V14h10.1v2.4h-3.7
		C108.1,16.4,108.1,26.7,108.1,26.7z M123.8,26.7h-3.1l-2.5-4.5h-2v4.5h-2.7V14h5.9c2.6,0,4.3,1.7,4.3,4.1c0,2.2-1.4,3.4-2.8,3.8
		L123.8,26.7z M119.1,19.8c1.1,0,1.9-0.6,1.9-1.7s-0.8-1.7-1.9-1.7h-2.8v3.4C116.3,19.8,119.1,19.8,119.1,19.8z M137.6,26.7h-3.1
		l-0.8-2.2h-5.4l-0.8,2.2h-3.1l4.9-12.7h3.4L137.6,26.7z M133,22.1l-2-5.5l-2,5.5H133z M143.8,26.7h-5V14h5c4,0,6.7,2.5,6.7,6.4
		S147.7,26.7,143.8,26.7z M143.8,24.3c2.5,0,4-1.8,4-4s-1.4-4-4-4h-2.3v7.9h2.3V24.3z M161.4,26.7h-9V14h9v2.4h-6.3V19h6.1v2.4h-6.1
		v2.9h6.3V26.7z"/>
</g>
</svg>
