<svg width="80" height="25" viewBox="0 0 80 25" fill="none" xmlns="http://www.w3.org/2000/svg">
<path d="M5.95574 12.5553C5.95574 8.91348 8.91348 5.95574 12.5553 5.95574C15.4326 5.95574 17.8873 7.80684 18.7928 10.3823H24.9296C24.7686 9.45674 24.5071 8.55131 24.1248 7.666C23.501 6.17706 22.5956 4.82897 21.4286 3.68209C20.2817 2.53521 18.9336 1.62978 17.4447 0.985915C15.8954 0.321931 14.2455 0 12.5553 0C10.8652 0 9.21529 0.342052 7.666 0.985915C6.17706 1.60966 4.82897 2.51509 3.68209 3.68209C2.53521 4.82897 1.62978 6.17706 0.985915 7.666C0.321931 9.21529 0 10.8652 0 12.5553C0 14.2455 0.342052 15.8954 0.985915 17.4447C1.60966 18.9336 2.51509 20.2817 3.68209 21.4286C4.82897 22.5755 6.17706 23.4809 7.666 24.1248C8.55131 24.4869 9.45674 24.7686 10.3823 24.9296V18.7928C7.80684 17.9075 5.95574 15.4527 5.95574 12.5553Z" fill="#FF3D00"/>
<path d="M24.9497 12.5557L21.8712 15.6341V21.8716H15.6338L12.5553 24.95V12.5557H24.9497Z" fill="#FF3D00"/>
<path d="M35.3119 17.3644C33.8833 17.3644 32.7163 16.9217 31.8109 16.0163C30.9054 15.1109 30.4628 13.9841 30.4628 12.5958C30.4628 11.2678 30.9255 10.141 31.8511 9.21548C32.7767 8.28992 33.9235 7.82715 35.3119 7.82715C36.1167 7.82715 36.7807 7.92775 37.3441 8.12896C37.8873 8.33017 38.4306 8.6521 38.9336 9.07463L37.666 10.6239C37.2837 10.302 36.9014 10.0605 36.5392 9.9197C36.1771 9.77886 35.7545 9.69838 35.2515 9.69838C34.507 9.69838 33.8833 9.98007 33.3803 10.5434C32.8571 11.1068 32.6157 11.7909 32.6157 12.5958C32.6157 13.4408 32.8773 14.1451 33.4004 14.6883C33.9235 15.2316 34.5875 15.5133 35.4125 15.5133C36.1771 15.5133 36.8008 15.3322 37.3239 14.97V13.6622H35.2917V11.9117H39.2958V15.9157C38.1086 16.8614 36.7807 17.3644 35.3119 17.3644Z" fill="white"/>
<path d="M44.326 17.3642C43.2596 17.3642 42.3743 17.0221 41.6701 16.338C40.986 15.6539 40.6238 14.7686 40.6238 13.6821C40.6238 12.6559 40.9457 11.7907 41.6097 11.0664C42.2737 10.3622 43.0986 10 44.1047 10C45.2113 10 46.0765 10.3622 46.66 11.1066C47.2435 11.8511 47.5453 12.7565 47.5453 13.8431C47.5453 13.9437 47.5453 14.1248 47.5252 14.3662H42.6157C42.7163 14.8089 42.9175 15.1509 43.1992 15.3924C43.501 15.6338 43.8833 15.7545 44.326 15.7545C44.9497 15.7545 45.5131 15.5131 46.0363 15.0302L47.1831 16.0362C46.499 16.9215 45.5534 17.3642 44.326 17.3642ZM42.6157 13.1187H45.6338C45.5735 12.6559 45.4125 12.2938 45.1509 12.0322C44.8894 11.7505 44.5473 11.6298 44.1449 11.6298C43.7425 11.6298 43.4004 11.7706 43.1389 12.0322C42.8572 12.2938 42.6962 12.6559 42.6157 13.1187Z" fill="white"/>
<path d="M60.6237 17.3642C59.5573 17.3642 58.672 17.0221 57.9678 16.338C57.2837 15.6539 56.9215 14.7686 56.9215 13.6821C56.9215 12.6559 57.2434 11.7907 57.9074 11.0664C58.5714 10.3622 59.3964 10 60.4024 10C61.509 10 62.3742 10.3622 62.9577 11.1066C63.5412 11.8511 63.843 12.7565 63.843 13.8431C63.843 13.9437 63.843 14.1248 63.8229 14.3662H58.9135C59.0141 14.8089 59.2153 15.1509 59.497 15.3924C59.7988 15.6338 60.1811 15.7545 60.6237 15.7545C61.2475 15.7545 61.8109 15.5131 62.334 15.0302L63.4809 16.0362C62.7968 16.9215 61.831 17.3642 60.6237 17.3642ZM58.8933 13.1187H61.9115C61.8511 12.6559 61.6901 12.2938 61.4286 12.0322C61.167 11.7505 60.8249 11.6298 60.4225 11.6298C60.0201 11.6298 59.6781 11.7706 59.4165 12.0322C59.1348 12.2938 58.9738 12.6559 58.8933 13.1187Z" fill="white"/>
<path d="M69.6579 12.1326C69.6579 12.1326 68.5915 12.0722 67.9678 12.7362C67.5855 13.1386 67.4044 13.8227 67.4044 14.6477V17.203H65.3923V14.0441C65.3923 11.0461 67.3642 9.97967 69.6378 10.1406V12.1326H69.6579Z" fill="white"/>
<path d="M70.8853 9.35656V7.58594H72.9979V9.35656H70.8853ZM70.9456 17.2036V10.1413H72.9577V17.2036H70.9456Z" fill="white"/>
<path d="M77.3039 17.3239C76.1972 17.3239 75.1711 16.9618 74.2656 16.2575L75.1308 14.9497C75.8954 15.5131 76.6399 15.7948 77.3642 15.7948C77.9276 15.7948 78.2093 15.6137 78.2093 15.2515C78.2093 15.2113 78.2093 15.171 78.1892 15.1107C78.169 15.0704 78.1489 15.0302 78.1087 14.9899C78.0684 14.9497 78.0282 14.9296 77.988 14.8893C77.9477 14.8491 77.8874 14.829 77.827 14.7887C77.7666 14.7485 77.7063 14.7284 77.6459 14.7083C77.6057 14.6881 77.5252 14.668 77.4447 14.6278C77.3642 14.5875 77.2837 14.5674 77.2234 14.5473C77.163 14.5272 77.0825 14.507 76.9819 14.4668C76.8813 14.4266 76.8008 14.4064 76.7405 14.3863C76.4387 14.3058 76.1972 14.2052 75.9759 14.1248C75.7747 14.0241 75.5533 13.9034 75.332 13.7425C75.1107 13.5815 74.9296 13.3803 74.8089 13.1187C74.6882 12.8773 74.6278 12.5755 74.6278 12.2334C74.6278 11.5493 74.8692 10.9859 75.3723 10.6036C75.8552 10.2012 76.4789 10 77.2234 10C78.169 10 79.0544 10.2817 79.8592 10.8249L79.0946 12.2133C78.3501 11.7706 77.7063 11.5493 77.1831 11.5493C76.7002 11.5493 76.4387 11.7304 76.4387 12.0724C76.4387 12.3139 76.8411 12.5553 77.6459 12.837C77.7465 12.8773 77.827 12.8974 77.8672 12.9175C78.1087 12.998 78.3099 13.0785 78.4709 13.1388C78.6318 13.1992 78.833 13.2998 79.0342 13.4205C79.2354 13.5412 79.4165 13.6821 79.5373 13.8028C79.658 13.9437 79.7787 14.1046 79.8592 14.326C79.9397 14.5272 80 14.7686 80 15.0302C80 15.7948 79.7586 16.3582 79.2556 16.7404C78.7525 17.1429 78.1087 17.3239 77.3039 17.3239Z" fill="white"/>
<path d="M55.2515 14.0444V17.2033H53.2395V14.648C53.2395 13.823 53.0584 13.1389 52.6761 12.7365C52.1529 12.1932 51.328 12.2134 51.0664 12.2134V17.2033H49.0745V10.1409H51.0664C53.5211 10.1208 55.2515 11.0866 55.2515 14.0444Z" fill="white"/>
</svg>
