<svg width="360" height="1452" viewBox="0 0 360 1452" fill="none" xmlns="http://www.w3.org/2000/svg">
<path d="M1592.27 870.82C1579.63 920.733 1544.27 962.418 1491.05 995.049C1437.83 1027.68 1366.79 1051.24 1282.88 1064.89C1115.06 1092.2 895.855 1079.88 665.054 1021.43C434.254 962.984 235.604 869.491 101.006 765.601C33.7065 713.656 -17.56 659.126 -48.8326 605.098C-80.1037 551.073 -91.3675 497.58 -78.728 447.667C-66.0884 397.754 -30.7222 356.069 22.493 323.439C75.7109 290.807 146.752 267.249 230.663 253.596C398.484 226.288 617.689 238.61 848.49 297.057C1079.29 355.503 1277.94 448.996 1412.54 552.886C1479.84 604.831 1531.1 659.361 1562.38 713.389C1593.65 767.414 1604.91 820.908 1592.27 870.82Z" stroke="url(#paint0_linear_175_12)"/>
<path d="M1331.67 804.826C1322.98 839.129 1298.67 867.789 1262.07 890.233C1225.46 912.679 1176.59 928.887 1118.85 938.283C1003.37 957.073 852.52 948.595 693.684 908.373C534.848 868.15 398.145 803.81 305.527 732.322C259.218 696.578 223.949 659.062 202.439 621.899C180.93 584.74 173.192 547.964 181.879 513.661C190.565 479.359 214.873 450.698 251.476 428.254C288.081 405.809 336.955 389.6 394.695 380.205C510.175 361.414 661.024 369.892 819.86 410.115C978.696 450.337 1115.4 514.677 1208.02 586.165C1254.33 621.909 1289.6 659.426 1311.11 696.588C1332.61 733.748 1340.35 770.523 1331.67 804.826Z" stroke="url(#paint1_linear_175_12)"/>
<path d="M1909.38 951.123C1891.93 1020.03 1843.11 1077.56 1769.68 1122.59C1696.25 1167.62 1598.23 1200.12 1482.48 1218.95C1250.97 1256.62 948.585 1239.62 630.217 1159C311.849 1078.38 37.8208 949.413 -147.858 806.096C-240.698 734.437 -311.431 659.205 -354.582 584.655C-397.732 510.107 -413.287 436.272 -395.837 367.365C-378.388 298.457 -329.566 240.924 -256.136 195.898C-182.704 150.871 -84.6897 118.372 31.0666 99.5364C262.577 61.8658 564.959 78.8654 883.327 159.487C1201.7 240.108 1475.72 369.075 1661.4 512.392C1754.24 584.051 1824.97 659.283 1868.13 733.833C1911.28 808.38 1926.83 882.216 1909.38 951.123Z" stroke="url(#paint2_linear_175_12)"/>
<defs>
<linearGradient id="paint0_linear_175_12" x1="-20.657" y1="418.859" x2="1426.55" y2="1019.25" gradientUnits="userSpaceOnUse">
<stop stop-color="#484848"/>
<stop offset="0.491388" stop-color="#484848" stop-opacity="0.36"/>
<stop offset="1" stop-color="#484848"/>
</linearGradient>
<linearGradient id="paint1_linear_175_12" x1="221.696" y1="493.796" x2="1217.76" y2="907.025" gradientUnits="userSpaceOnUse">
<stop stop-color="#484848"/>
<stop offset="0.491388" stop-color="#484848" stop-opacity="0.36"/>
<stop offset="1" stop-color="#484848"/>
</linearGradient>
<linearGradient id="paint2_linear_175_12" x1="-315.555" y1="327.676" x2="1680.61" y2="1155.81" gradientUnits="userSpaceOnUse">
<stop stop-color="#484848"/>
<stop offset="0.491388" stop-color="#484848" stop-opacity="0.36"/>
<stop offset="1" stop-color="#484848"/>
</linearGradient>
</defs>
</svg>
