<svg width="30" height="30" viewBox="0 0 30 30" fill="none" xmlns="http://www.w3.org/2000/svg">
<path d="M23.7891 15.9375C22.8131 15.9375 21.86 16.0236 21.0152 16.1839C20.454 14.956 18.249 14.3257 15.8789 14.2025V10.5469H18.5156C22.8773 10.5469 26.4258 6.99844 26.4258 2.63679V0.878979C26.4258 0.523491 26.2117 0.202984 25.8832 0.0669886C25.5548 -0.0690658 25.1767 0.0061098 24.9254 0.257476L24.1972 0.985619C23.6992 1.48366 23.0371 1.75788 22.3328 1.75788H22.0313C18.9738 1.75788 16.3161 3.50169 15 6.04682C13.6839 3.50169 11.0262 1.75788 7.96875 1.75788H7.66717C6.96287 1.75788 6.3007 1.48361 5.80272 0.985619L5.07463 0.257476C4.82326 0.0061098 4.44522 -0.0691244 4.1168 0.06693C3.78838 0.202984 3.57422 0.523491 3.57422 0.878979V2.63679C3.57422 6.99844 7.12272 10.5469 11.4844 10.5469H14.1211V14.2025C11.751 14.3257 9.54598 14.9561 8.98483 16.1839C8.14002 16.0236 7.18688 15.9375 6.21094 15.9375C3.11941 15.9375 0 16.7529 0 18.5742V25.6055C0 27.4269 3.11941 28.2422 6.21094 28.2422C7.18688 28.2422 8.14002 28.1561 8.98483 27.9958C9.615 29.3746 12.318 30 15 30C17.682 30 20.385 29.3746 21.0152 27.9958C21.8599 28.1561 22.8131 28.2422 23.7891 28.2422C26.8806 28.2422 30 27.4269 30 25.6055V18.5742C30 16.7528 26.8806 15.9375 23.7891 15.9375ZM22.0313 3.51569C22.4945 3.51569 23.5286 3.56175 24.6643 2.84808C24.5525 6.14291 21.8372 8.78912 18.5156 8.78912H15.9415C16.3693 5.81156 18.9373 3.51569 22.0313 3.51569ZM11.4844 8.78912C8.16281 8.78912 5.44752 6.14291 5.33561 2.84808C6.23332 3.4121 7.02393 3.51569 7.96875 3.51569C11.0628 3.51569 13.6307 5.81156 14.0585 8.78912H11.4844ZM8.84766 26.2311C8.0707 26.3954 7.15858 26.4843 6.21094 26.4843C3.56051 26.4844 2.02758 25.8338 1.75781 25.5254V24.0179C2.94211 24.4996 4.58033 24.7265 6.21094 24.7265C7.13438 24.7265 8.03742 24.6494 8.84766 24.5053V26.2311ZM8.84766 22.7156C8.0707 22.8799 7.15858 22.9688 6.21094 22.9688C3.56051 22.9688 2.02758 22.3181 1.75781 22.0098V20.5024C2.94211 20.984 4.58033 21.211 6.21094 21.211C7.13438 21.211 8.03742 21.1339 8.84766 20.9898V22.7156ZM8.84766 19.1999C8.0707 19.3642 7.15858 19.4531 6.21094 19.4531C3.77262 19.4531 2.28006 18.9024 1.84676 18.5742C2.28006 18.246 3.77262 17.6953 6.21094 17.6953C7.15858 17.6953 8.0707 17.7842 8.84766 17.9485V19.1999ZM15 15.9375C17.4292 15.9375 18.9021 16.4916 19.3148 16.8164C18.9021 17.1413 17.4292 17.6953 15 17.6953C12.5708 17.6953 11.0979 17.1413 10.6852 16.8164C11.0979 16.4915 12.5708 15.9375 15 15.9375ZM19.3945 26.9217C19.3945 26.9241 19.3945 26.9265 19.3945 26.929V27.2885C19.1372 27.5935 17.6288 28.2422 15 28.2422C12.3713 28.2422 10.8629 27.5935 10.6055 27.2884V26.929C10.6055 26.9265 10.6055 26.9241 10.6055 26.9217V25.7825C11.7773 26.2595 13.3923 26.4844 15 26.4844C16.6077 26.4844 18.2227 26.2595 19.3945 25.7825V26.9217ZM19.3945 23.406C19.3945 23.4085 19.3945 23.4109 19.3945 23.4133V23.7728C19.1371 24.0779 17.6288 24.7266 15 24.7266C12.3713 24.7266 10.8629 24.0779 10.6055 23.7728V23.4133C10.6055 23.4109 10.6055 23.4085 10.6055 23.406V22.2668C11.7773 22.7438 13.3923 22.9687 15 22.9687C16.6077 22.9687 18.2227 22.7438 19.3945 22.2668V23.406ZM19.3945 19.8904C19.3945 19.8929 19.3945 19.8953 19.3945 19.8978V20.2572C19.1371 20.5623 17.6288 21.211 15 21.211C12.3713 21.211 10.8629 20.5623 10.6055 20.2572V19.8978C10.6055 19.8954 10.6055 19.893 10.6055 19.8905V18.7513C11.7773 19.2283 13.3923 19.4532 15 19.4532C16.6077 19.4532 18.2227 19.2283 19.3945 18.7513V19.8904ZM21.1524 17.9486C21.9294 17.7843 22.8415 17.6954 23.7891 17.6954C26.2274 17.6953 27.7199 18.246 28.1532 18.5742C27.7199 18.9025 26.2274 19.4532 23.7891 19.4532C22.8415 19.4532 21.9294 19.3643 21.1524 19.2V17.9486ZM28.2422 25.5254C27.9725 25.8338 26.4396 26.4844 23.7891 26.4844C22.8414 26.4844 21.9294 26.3955 21.1523 26.2312V24.5054C21.9626 24.6495 22.8656 24.7266 23.7891 24.7266C25.4197 24.7266 27.0579 24.4996 28.2422 24.018V25.5254ZM28.2422 22.0098C27.9724 22.3181 26.4395 22.9688 23.7891 22.9688C22.8414 22.9688 21.9294 22.8799 21.1523 22.7156V20.9898C21.9626 21.1339 22.8656 21.211 23.7891 21.211C25.4197 21.211 27.0579 20.984 28.2422 20.5024V22.0098Z" fill="#FF914A"/>
</svg>
